<svg version="1.1" xmlns="http://www.w3.org/2000/svg" viewBox="0 0 1301.16015625 773.52734375" width="2602.3203125" height="1547.0546875">
  <!-- svg-source:excalidraw -->
  
  <defs>
    <style>
      @font-face {
        font-family: "Virgil";
        src: url("https://excalidraw.com/Virgil.woff2");
      }
      @font-face {
        font-family: "Cascadia";
        src: url("https://excalidraw.com/Cascadia.woff2");
      }
    </style>
  </defs>
  <rect x="0" y="0" width="1301.16015625" height="773.52734375" fill="#ffffff"></rect><g transform="translate(12.30859375 10) rotate(0 639.42578125 357.060546875)"><path d="M0.6275645360350609 0.3677189484238625 C305.47848172586674 2.7669536293136776, 611.2341947531008 1.5771674335586725, 1278.482057248056 0.4119834080338478 M0.11233359053730965 0.054748826473951344 C456.1455878035093 -3.8952464192637133, 911.3831457579363 -4.129996189428203, 1279.0985824890436 -0.0981088824570179 M1279.4051197633148 0.7626574650406838 C1279.536951238579 248.25816963763722, 1279.2369875258867 494.5768400743939, 1278.762699328363 714.2069356575608 M1279.221557457 0.026569347828626633 C1276.1339834760936 185.22989191808227, 1276.3456455539974 370.7702071335996, 1279.1758552141487 714.4546984247863 M1278.461897097528 714.1824510231614 C821.437306977452 714.2977575310221, 364.46155566352826 714.8563691624155, 0.7344287499785424 714.5312839642168 M1278.973946148902 714.5022099070251 C848.6031303756012 716.4484875139386, 418.23412810938026 716.8858523067624, 0.031375772505998614 714.261008387059 M0.4726523980498314 713.525000013411 C-0.01539402008129398 460.83494597136234, -0.5727887630469922 207.01931972472374, -0.4514361277222634 0.7266787186264992 M-0.26748763844370843 714.2252984337508 C0.838962290141062 436.35759014254944, 1.5474795316190284 158.9192084809867, 0.30706310942769055 -0.15664481595158578" stroke="#000000" stroke-width="1" fill="none"></path></g><g transform="translate(10 735.52734375) rotate(0 140.5 14)"><text x="0" y="21" font-family="Virgil, Segoe UI Emoji" font-size="20px" fill="#000000" text-anchor="start" style="white-space: pre;" direction="ltr">存储目录(Storage Directory)</text></g><g transform="translate(91.37109375 88.234375) rotate(0 217.205078125 67.669921875)"><path d="M0.8836251786165815 -0.038501267733633285 C129.91916032127006 1.1319500600745331, 260.7105131770421 1.5486930374148484, 434.7115015196948 -0.24089179305655128 M-0.08048463868229404 -0.4451857142664639 C101.35912916575629 0.21381405817463725, 202.14877918126152 -0.12361527858870379, 434.24999432729504 0.396268129693753 M433.84027448669076 -0.7625967003405094 C435.53624121381546 54.290507775033625, 432.94353536798263 107.28199344547612, 433.5180895663798 134.3889587186277 M433.80028106085956 0.7147450018674135 C434.40373133973225 39.301218785333184, 434.3839116628562 78.0280295591554, 434.0333635341376 135.1786563564092 M435.1847992484805 136.28807907673706 C333.53751750261137 136.85917670524265, 232.3188216722706 136.63050659693687, 0.330343132965694 135.4106614120174 M434.4398230963633 135.35145035883966 C291.71315742198067 135.18776912344097, 149.34130770313547 135.38611831948853, -0.09627899697322106 135.3553980150204 M1.6513051129877567 133.48895278200507 C0.480745478532117 89.20126017359945, 2.640870138070386 43.407368682137175, -1.7639507912099361 0.3313575051724911 M-0.5543480981141329 134.4027996826917 C-0.0531744574337063 100.80142329508743, -0.7945631955890713 67.67400206190213, 0.7523084413260221 0.6807712484151125" stroke="#000000" stroke-width="1" fill="none"></path></g><g transform="translate(67.93359375 240.046875) rotate(0 252.5 39)"><text x="0" y="19" font-family="Virgil, Segoe UI Emoji" font-size="20px" fill="#000000" text-anchor="start" style="white-space: pre;" direction="ltr">gz目录(gz Directory):包含各个镜像的所有镜像层gz包</text><text x="0" y="45" font-family="Virgil, Segoe UI Emoji" font-size="20px" fill="#000000" text-anchor="start" style="white-space: pre;" direction="ltr">(All image layer GZ packets containing each image)</text><text x="0" y="71" font-family="Virgil, Segoe UI Emoji" font-size="20px" fill="#000000" text-anchor="start" style="white-space: pre;" direction="ltr"></text></g><g transform="translate(131.25 141.28125) rotate(0 141.5 12.5)"><text x="0" y="18" font-family="Virgil, Segoe UI Emoji" font-size="20px" fill="#000000" text-anchor="start" style="white-space: pre;" direction="ltr">ImageID/layer_digest.tar.gz</text></g><g transform="translate(668.1484375 86.7421875) rotate(0 284.359375 66.419921875)"><path d="M0.32575384229421617 -0.3362786158919335 C125.59739917339176 1.0395365373531822, 251.96343995126665 0.8145376340786459, 568.3551962003112 -0.30546477884054185 M-0.13489910885691644 0.28511636778712274 C206.49950603321778 0.006728514410322739, 413.6000557370601 0.6228004300368486, 568.6316117830575 0.15112996622920039 M570.6762681268156 -0.6425004862248898 C571.0073381683138 40.882632775406094, 569.9479386827257 78.28267829899997, 570.3487776778638 131.90588191524148 M568.4974745679647 0.8136202227324247 C568.0056002519966 44.662036856427584, 567.1674973748566 89.28720024000067, 569.6466791201383 132.90640194527805 M567.9844730004668 133.35479928404092 C350.68141178554504 130.25916112528347, 132.5886639861506 130.43636864290735, -0.03415898233652115 133.55160738378763 M568.9525328464806 132.9716262154281 C344.9997907269688 131.97214576939515, 121.74976543484952 131.88733420113496, 0.27249985411763195 133.08030186221004 M-1.8197638727724552 131.0179411508143 C-1.9351039840421433 93.63794152705304, -2.104633779688811 55.956340493379685, -0.0010827518999576569 -0.2655169628560543 M-0.1355652641505003 132.96897794120014 C-0.8575099653458893 97.48518302997036, 0.4262858086371124 62.84881357955601, 0.07855399139225483 -0.12028150446712971" stroke="#000000" stroke-width="1" fill="none"></path></g><g transform="translate(649.0078125 240.28125) rotate(0 315.5 40.5)"><text x="0" y="20" font-family="Virgil, Segoe UI Emoji" font-size="20px" fill="#000000" text-anchor="start" style="white-space: pre;" direction="ltr">images目录(images Directory):包含各个镜像的镜像层解压后的目录及</text><text x="0" y="47" font-family="Virgil, Segoe UI Emoji" font-size="20px" fill="#000000" text-anchor="start" style="white-space: pre;" direction="ltr">对应的配置文件(Contains the image layer of each image after</text><text x="0" y="74" font-family="Virgil, Segoe UI Emoji" font-size="20px" fill="#000000" text-anchor="start" style="white-space: pre;" direction="ltr">decompression directory and Corresponding configuration file)</text></g><g transform="translate(688.25 140.28125) rotate(0 216 12.5)"><text x="0" y="18" font-family="Virgil, Segoe UI Emoji" font-size="20px" fill="#000000" text-anchor="start" style="white-space: pre;" direction="ltr">ImageID/layer_diff_id_dir + image_id.json</text></g><g transform="translate(59.01171875 349.890625) rotate(0 165.435546875 107.134765625)"><path d="M167.06093624573455 0.5852817944341382 C184.22481242323082 -1.038133477315765, 203.50131960158836 1.4618931953368368, 220.31852610581797 5.151795619613296 C237.13573261004757 8.841698043889755, 253.8084667956896 15.168823098979153, 267.96417527111214 22.72469634009289 C282.1198837465347 30.280569581206628, 295.49302003916495 40.55722276199208, 305.2527769583532 50.48703506629572 C315.01253387754144 60.416847370599356, 322.5515468737821 70.95052497785164, 326.52271678624163 82.3035701659147 C330.49388669870115 93.65661535397777, 331.0179684200655 106.93074275564709, 329.07979643311035 118.60530619467407 C327.1416244461552 130.27986963370105, 322.3939279682804 141.94828695353587, 314.89368486451076 152.35095080007665 C307.3934417607411 162.75361464661742, 296.5353432926625 172.6466400749191, 284.07833781049237 181.02128927391868 C271.62133232832224 189.39593847291826, 256.3157135593368 197.18792342611061, 240.15165197149008 202.59884599407408 C223.98759038364332 208.00976856203755, 205.07803974686382 211.8652963068515, 187.09396828341184 213.4868246816995 C169.10989681995986 215.1083530565475, 149.9105309788058 214.62658779303942, 132.24722319077813 212.32801624316204 C114.58391540275045 210.02944469328466, 96.46737020668743 205.8100183543413, 81.11412155524579 199.69539538243527 C65.76087290380414 193.58077241052922, 51.73589122644603 184.73957363585612, 40.12773128212824 175.64027841172572 C28.519571337810447 166.54098318759532, 18.15742922051246 155.84307147324935, 11.465161889339043 145.0996240376529 C4.772894558165629 134.35617660205642, 0.8401970634458328 122.63850847906969, -0.02587270491224558 111.17959379814698 C-0.8919424732703239 99.72067911722428, 0.9257235868567335 87.61546644182737, 6.2687432791905735 76.34613595211664 C11.611762971524414 65.07680546240591, 21.15345389439441 53.04993246624248, 32.032245449090794 43.563610859882665 C42.91103700378718 34.07728925352285, 56.64625683933124 26.131563809293823, 71.54149260736888 19.42820631395776 C86.43672837540653 12.724848818621695, 103.22165607088334 6.418205856148951, 121.40366005731667 3.3434658878662873 C139.58566404375 0.26872591958362335, 168.64952737228472 0.8653836920310548, 180.6335165259689 0.9797665042617751 C192.61750567965308 1.0941493164924954, 193.76322319699418 2.4036528512917856, 193.3075949794217 4.029762761250609 M202.84663272864097 2.6611305348712477 C220.00098370848957 3.6991547094335786, 238.36240032501902 10.889744219474697, 253.83431235326407 16.906172677869236 C269.3062243815091 22.922601136263776, 284.6279009543348 29.83482779704228, 295.6781048981112 38.75970128523848 C306.7283088418876 47.684574773434676, 314.08342568977014 59.431050490424795, 320.13553601592264 70.45541360704642 C326.18764634207514 81.47977672366805, 331.72592000473117 93.27570289958366, 331.99076685502604 104.90587998496824 C332.2556137053209 116.53605707035281, 327.8938111733978 128.82617551269985, 321.7246171176919 140.23647611935385 C315.55542306198595 151.64677672600786, 305.7998635052863 163.97396790565938, 294.9756025207904 173.3676836248922 C284.1513415362945 182.76139934412504, 271.8423451300574 190.13576596693787, 256.77905121071666 196.5987704347508 C241.7157572913759 203.06177490256374, 222.19809988370255 209.31363074283408, 204.5958390047458 212.14571043176986 C186.99357812578907 214.97779012070563, 168.72517118773501 214.57974912840666, 151.16548593697618 213.59124856836553 C133.60580068621735 212.6027480083244, 115.72362902168082 210.94951658387254, 99.23772750019285 206.21470707152315 C82.75182597870487 201.47989755917376, 65.61888964513001 193.61903774004423, 52.250076808048334 185.1823914942693 C38.88126397096666 176.74574524849436, 27.64036587734342 166.0580838923861, 19.024850477702785 155.59482959687358 C10.409335078062147 145.13157530136107, 3.068800727813264 133.9654878137958, 0.5569844102045067 122.40286572119413 C-1.9548319074042504 110.84024362859248, 0.6180621933206822 97.60912788617804, 3.953952572050241 86.21909704126361 C7.2898429507798 74.82906619634917, 12.002347528220517 64.0853820118821, 20.57232668258186 54.06268065170748 C29.1423058369432 44.039979291532866, 41.71929677791644 33.54181331634094, 55.373827498218304 26.082888880215904 C69.02835821852017 18.623964444090863, 85.55570307525745 13.410904760690073, 102.49951100439304 9.30913403495724 C119.44331893352863 5.207363309224405, 140.29255446877502 2.453368891701165, 157.0366750730318 1.4722645258189004 C173.78079567728858 0.49116015993663587, 195.50502132499338 2.856590126502224, 202.96423462993374 3.422507839663652 C210.4234479348741 3.98842555282508, 202.65927336881373 3.0641352352407054, 201.79195490267395 4.867770804787469" stroke="#000000" stroke-width="1" fill="none"></path></g><g transform="translate(22.359375 644.1875) rotate(0 332 26.5)"><text x="0" y="19.5" font-family="Virgil, Segoe UI Emoji" font-size="20px" fill="#000000" text-anchor="start" style="white-space: pre;" direction="ltr"> db目录(db Directory):镜像相关metadata存储目录,采用sled数据库</text><text x="0" y="46" font-family="Virgil, Segoe UI Emoji" font-size="20px" fill="#000000" text-anchor="start" style="white-space: pre;" direction="ltr"> (Image related metadata storage directory, using sled database)</text></g><g transform="translate(59.19140625 439.77734375) rotate(0 165.5 12.5)"><text x="0" y="18" font-family="Virgil, Segoe UI Emoji" font-size="20px" fill="#000000" text-anchor="start" style="white-space: pre;" direction="ltr">sledDB:Storage Image Metadata</text></g><g transform="translate(815.04296875 338.80859375) rotate(0 0 0)"><path d="M0.41528488881886005 0.2168681751936674 C0.48080944704512757 0.1528183153520028, 0.5278025238464276 -0.7777047424266735, 0.4436847735196352 -0.8922974336892366 C0.3595670231928428 -1.0068901249517996, 0.08104498870670795 -0.5440168051669995, -0.08942161314189434 -0.470687972381711 C-0.25988821499049664 -0.3973591395964225, -0.5685355495661497 -0.44617977427939576, -0.5791148375719786 -0.4523244369775057 C-0.5896941255778074 -0.4584690996756156, -0.2105509073783954 -0.502850062524279, -0.15289734117686749 -0.5075559485703707 C-0.09524377497533956 -0.5122618346164624, -0.40870144280294574 -0.4273455409953992, -0.2331934403628111 -0.480559753254056 C-0.057685437922676414 -0.5337739655127128, 0.9367239444206158 -1.0651455391198397, 0.9001506734639406 -0.8268412221223116 C0.8635774025072654 -0.5885369051247835, -0.3069855204472939 0.8352758220086495, -0.45263306610286236 0.9492661487311125 C-0.5982806117584308 1.0632564754535754, -0.06746248714625835 -0.14838370370368162, 0.026265399530529976 -0.14289926178753376 C0.1199932862073183 -0.1374148198713859, 0.036905186250805855 1.1169121793160837, 0.10973425395786762 0.9821728002279997 C0.1825633216649294 0.8474334211399158, 0.46780776667098206 -0.7846283583591381, 0.4632398057729006 -0.9513355363160372 M-0.7034152848646045 -0.5592156993225217 C-0.804667572490871 -0.6083917068317533, -0.1259635193273425 -1.385041450150311, 0.09897800255566835 -1.2328386353328824 C0.3239195244386792 -1.0806358205154538, 0.6641597943380475 0.1574324918910861, 0.6462338464334607 0.35400118958204985 C0.6283078985288739 0.5505698872730136, -0.07618392538279295 0.025737847201526165, -0.008577684871852398 -0.053426449187099934 C0.059028555639088154 -0.13259074557572603, 0.8916222648695111 -0.0016524838283658028, 1.051871289499104 -0.12098458874970675 C1.212120314128697 -0.2403166936710477, 1.2329531209543347 -0.6198984133079648, 0.952916462905705 -0.7694190787151456 C0.6728798048570752 -0.9189397441223264, -0.6163087887689471 -1.3415426658466458, -0.6283486587926745 -1.0181085811927915 C-0.640388528816402 -0.6946744965389371, 0.8939769165590405 1.159739221446216, 0.8806772427633405 1.1711854292079806 C0.8673775689676404 1.1826316369697452, -0.7280415697023273 -0.794611101038754, -0.708146701566875 -0.9494313346222043 C-0.6882518334314227 -1.1042515682056546, 0.8275417583063245 0.2682152045890689, 1.000046451576054 0.24226402770727873 C1.1725511448457837 0.21631285082548857, 0.5161407189443707 -0.8713558362796903, 0.3268814580515027 -1.1051383959129453" stroke="#000000" stroke-width="1" fill="none"></path></g><g transform="translate(514.66015625 324.45703125) rotate(0 103.310546875 35.45703125)"><path d="M68.36687300889646 2.0223002901625904 C81.08564143243943 -0.0538395117175714, 99.13277449534968 0.03311768759064648, 113.7817884898494 0.5040097650194255 C128.43080248434913 0.9749018424482045, 143.58226549214905 2.2893716097504946, 156.26095697589477 4.847652754735265 C168.9396484596405 7.405933899720035, 181.57084554792095 11.687675478620067, 189.85393739232376 15.853696634928045 C198.13702923672656 20.019717791236026, 203.9056685333593 24.731844512056778, 205.95950804231154 29.843779692583137 C208.0133475512638 34.95571487310949, 206.75506891759434 41.331680450218705, 202.17697444603724 46.5253077180862 C197.59887997448013 51.71893498595369, 189.07599850960256 57.45287888387042, 178.49094121296883 61.00554329978809 C167.9058839163351 64.55820771570575, 152.60032561269304 66.1750055276406, 138.66663066623488 67.84129421359219 C124.7329357197767 69.50758289954379, 109.69546022365262 71.368312174927, 94.8887715342198 71.00327541549771 C80.08208284478698 70.63823865606842, 62.90461318030223 68.20961032920428, 49.82649852963801 65.65107365701645 C36.74838387897379 63.09253698482863, 24.43445564806646 59.7892114224989, 16.4200836302345 55.65205538237077 C8.405711612402543 51.514899342242636, 3.6008452964248763 46.10879745029811, 1.7402664226462576 40.82813741624765 C-0.12031245113236122 35.54747738219719, 0.9182352640132789 28.824551997396643, 5.256610387562787 23.968095178067976 C9.594985511112295 19.11163835873931, 15.284588183738743 15.366924325777328, 27.77051716394331 11.689396500275642 C40.25644614414788 8.011868674773956, 69.28835788914056 3.8022586812618906, 80.17218426879019 1.9029282250578632 C91.05601064843982 0.003597768853835559, 92.64242808814684 0.045724607893118246, 93.07347544184114 0.2934137630514755 M64.85472794009034 1.9382425089979733 C77.13000710205297 -0.37508951617980957, 93.5623280381981 -0.2135532581511287, 108.288023590589 0.3450773999763044 C123.01371914297991 0.9037080581037374, 139.83717587730715 2.732344627625107, 153.20890125443572 5.290026457762572 C166.5806266315643 7.847708287900037, 179.7293504864647 11.458911713740534, 188.5183758533604 15.691168380801095 C197.30740122025608 19.923425047861656, 203.4418337772125 25.56987369883947, 205.94305345580983 30.683566460125938 C208.44427313440715 35.7972592214124, 207.93854575910302 41.6956586899511, 203.52569392494428 46.3733249485199 C199.11284209078553 51.0509912070887, 189.5242207016817 54.871439526197, 179.4659424508573 58.74956401153874 C169.4076642000329 62.627688496880474, 156.65847045122237 67.49977085243681, 143.17602441999784 69.64207186057033 C129.69357838877332 71.78437286870384, 113.47286205851992 72.27557226060482, 98.57126626351017 71.60337006033981 C83.66967046850041 70.93116786007481, 67.11726535234459 67.95864659278568, 53.76644964993936 65.60885865898032 C40.41563394753414 63.259070725174965, 27.194215312565312 61.40903885952441, 18.466372049078828 57.50464245750766 C9.738528785592345 53.600246055490906, 3.621413479378473 47.34738728894098, 1.3993900690204697 42.182480246879805 C-0.8226333413375335 37.01757320481863, 1.2766873218228034 31.35674029044782, 5.1342315869308095 26.515200205140633 C8.991775852038815 21.673660119833446, 14.58729278984782 17.212887463748523, 24.544655659668507 13.133239735036682 C34.50201852948919 9.053592006324841, 58.292669721996155 3.8493945250095143, 64.87840880585493 2.037313832869586 C71.4641478897137 0.22523314072965772, 63.557346019007554 1.6078065275642466, 64.05909016282115 2.2607555821971133" stroke="#000000" stroke-width="1" fill="none"></path></g><g transform="translate(528.95703125 347.48828125) rotate(0 93 12.5)"><text x="0" y="18" font-family="Virgil, Segoe UI Emoji" font-size="20px" fill="#000000" text-anchor="start" style="white-space: pre;" direction="ltr">image_repositories</text></g><g transform="translate(516.0859375 440.90234375) rotate(0 109.798828125 32.48046875)"><path d="M129.64295714378258 1.3220156793890574 C144.33578048734617 1.671447818408301, 161.0446734382247 3.5771112361169464, 173.74204166431187 6.029938398162102 C186.43940989039905 8.482765560207257, 198.0905931898603 11.911340536504905, 205.82716650030562 16.038978651659992 C213.56373981075095 20.16661676681508, 218.9471749201661 26.134735779725755, 220.16148152698378 30.79576708909262 C221.37578813380145 35.45679839845949, 218.62568634832823 39.859021687344324, 213.11300614121157 44.00516650786119 C207.6003259340949 48.15131132837806, 198.31846661846652 52.3129631192444, 187.08540028428382 55.672636012193834 C175.85233395010113 59.03230890514327, 160.49937592837026 62.74473860911812, 145.7146081361155 64.1632038655578 C130.92984034386072 65.58166912199749, 113.6320852062575 64.77608784464415, 98.37679353075514 64.18342755083194 C83.12150185525277 63.59076725701972, 67.62371537661012 62.95514064977441, 54.1828580831013 60.60724210268452 C40.74200078959248 58.25934355559464, 26.605547079321813 54.11356008970739, 17.73164976970223 50.09603626829265 C8.857752460082647 46.07851244687791, 3.019893792269469 40.83720010241493, 0.9394742253838047 36.50209917419609 C-1.1409453415018596 32.16699824597725, 0.9973548286781453 28.40093000150602, 5.249132368388246 24.085430698979607 C9.500909908098347 19.769931396453195, 16.28724014503647 14.223130900982996, 26.450139463644405 10.609103359037608 C36.61303878225234 6.99507581709222, 51.89964550401493 4.256421718595822, 66.22652828003586 2.4012654473072743 C80.5534110560568 0.5461091760187262, 100.67066472088541 -0.17176333576864522, 112.41143611977004 -0.5218342686936808 C124.15220751865468 -0.8719052016187163, 131.97015563048504 -0.03646497234282248, 136.67115667334366 0.300839849757061 C141.37215771620228 0.6381446718569446, 141.19061733455203 0.7245246701971203, 140.61744237692173 1.50199466390562 M151.8065273202563 3.3418766082394527 C166.37910648150282 4.690001451115938, 181.96958628880813 7.6458839797999705, 192.7186113064568 10.932128685941976 C203.46763632410548 14.218373392083981, 211.9896226251162 18.77020271158285, 216.3006774261483 23.059344845091488 C220.6117322271804 27.348486978600125, 220.7836570158149 32.08623272067608, 218.58494011264943 36.66698148699379 C216.38622320948397 41.2477302533115, 211.47458609079328 46.82494113653069, 203.1083760071555 50.54383744299777 C194.74216592351772 54.26273374946485, 181.96152616593054 56.838623763050975, 168.38767961082277 58.980359325796286 C154.813833055715 61.122094888541596, 137.39003516372 62.75149782141832, 121.665296676509 63.39425081946961 C105.940558189298 64.0370038175209, 88.44918775499269 64.01684643453012, 74.0392486875568 62.83687731410403 C59.62930962012093 61.65690819367793, 46.19287857341911 59.30511688795555, 35.20566227189373 56.31443609691301 C24.21844597036835 53.32375530587048, 14.172446200298914 49.179252293543634, 8.115950878404519 44.892792567848815 C2.059455556510123 40.606332842153996, -1.796709532353821 35.05365836487328, -1.1333096594726442 30.595677742744087 C-0.46990978659146754 26.137697120614895, 4.562888075659973 21.974007638083595, 12.096350115691578 18.14490883507367 C19.629812155723183 14.315810032063746, 31.336261350036978 10.788868732027222, 44.06746258071699 7.6210849246845385 C56.798663811397006 4.453301117341855, 73.00286263912592 0.30454714269415817, 88.48355749977165 -0.8617940089824323 C103.96425236041738 -2.0281351606590228, 126.1429274385079 0.30290139364663204, 136.95163174459134 0.6230380146249956 C147.76033605067477 0.9431746356033592, 151.07687346394206 0.8222060310053413, 153.3357833362723 1.0590257168877493 C155.59469320860254 1.2958454027701574, 151.32755629972988 1.4876995980251428, 150.50509097857278 2.0439561299194438" stroke="#000000" stroke-width="1" fill="none"></path></g><g transform="translate(538.96875 462.046875) rotate(0 86.5 12.5)"><text x="0" y="18" font-family="Virgil, Segoe UI Emoji" font-size="20px" fill="#000000" text-anchor="start" style="white-space: pre;" direction="ltr">image_layer_level</text></g><g transform="translate(505.04296875 550.015625) rotate(0 116.1328125 30.408203125)"><path d="M165.35326847260328 2.896563991743033 C179.79911267485713 4.020428333403765, 193.8100495860479 6.7168857248072875, 204.2330530341324 9.998338763835765 C214.6560564822169 13.279791802864242, 223.55482602347956 18.568294068891106, 227.89128916111036 22.585282225913897 C232.22775229874117 26.602270382936688, 232.5978281672779 30.14858995333906, 230.25183185991722 34.1002677059725 C227.90583555255654 38.051945458605935, 222.6583750834969 42.776817078938656, 213.81531131694632 46.295348741714534 C204.97224755039574 49.81388040449041, 190.83365769225762 52.73883784571044, 177.19344926061376 55.21145768262775 C163.5532408289699 57.68407751954506, 147.66967090909947 60.2607121530162, 131.9740607270832 61.1310677632184 C116.27845054506697 62.00142337342059, 98.28120823844688 61.738636964491285, 83.01978816851633 60.43359134384091 C67.75836809858578 59.128545723190534, 52.6980650763032 56.165309117119875, 40.40554030749992 53.300794039316145 C28.113015538696636 50.436278961512414, 16.027210634322632 47.050550347099374, 9.264639555696647 43.246500877018505 C2.5020684770706607 39.442451406937636, -0.2795201696327491 34.83173214663739, -0.169886164255999 30.47649721883092 C-0.06025215887924891 26.12126229102445, 3.2183434023314517 20.80137324872805, 9.922443587957147 17.11509131017968 C16.626543773582842 13.428809371631305, 27.83928889062672 10.93952408088862, 40.05471494949818 8.35880558754068 C52.270141008369635 5.778087094192738, 67.68013795260974 3.055690418173051, 83.21499994118588 1.630780350092035 C98.74986192976202 0.2058702820110192, 117.39123523690802 -0.6474688157520496, 133.263886880955 -0.19065482094541508 C149.13653852500198 0.2661591738612194, 169.59358807381 3.1401784954000496, 178.45090980546775 4.371664318931842 C187.3082315371255 5.603150142463634, 187.5696676666222 6.6968524416605435, 186.4078172709014 7.198260120245337 M146.22144059739614 0.7525459706556497 C161.57229050675664 1.1326139069948447, 178.3014694739136 3.703187377733393, 190.64416200755227 6.474992476418649 C202.98685454119092 9.246797575103905, 213.38179977791884 13.60744545443097, 220.27759579922804 17.383376562767186 C227.17339182053723 21.159307671103402, 231.47698413792537 24.946447786964768, 232.01893813540747 29.130579126435943 C232.56089213288956 33.31471046590712, 229.53757232584547 38.358626287366484, 223.52931978412062 42.48816459959424 C217.52106724239576 46.617702911822, 207.71459903332448 51.30770246196913, 195.96942288505838 53.9078089998025 C184.22424673679228 56.50791553763587, 168.63542860985208 57.16050331422955, 153.0582628945241 58.088803826594436 C137.4810971791961 59.01710433895932, 118.5181944769276 59.71946555812584, 102.50642859309042 59.47761207399179 C86.49466270925323 59.235758589857745, 70.75610562893817 58.642104186694276, 56.98766759150099 56.63768292179016 C43.2192295540638 54.63326165688604, 29.198314015453686 50.700067314688596, 19.89580036846729 47.45108448456709 C10.593286721480897 44.202101654445585, 3.9086541869326275 41.359272916314424, 1.17258570958262 37.14378594106115 C-1.5634827677673875 32.92829896580787, -0.3124505276139189 26.194827480518928, 3.479389504367248 22.158162633047432 C7.2712295363484145 18.121497785575936, 14.09501024286425 16.184165069445488, 23.92362590146962 12.923796856232165 C33.75224156007499 9.663428643018843, 48.12245564037026 4.943765009536785, 62.451083455999466 2.5959533537674986 C76.77971127162867 0.2481416979982125, 95.9213309618398 -0.8096700828919048, 109.89539279524483 -1.163073078383551 C123.86945462864986 -1.5164760738751972, 140.3605869222402 0.14502379760967266, 146.2954544564297 0.4755353808176217 C152.2303219906192 0.8060469640255707, 146.06762022091937 0.31856154968502415, 145.50459800038175 0.8199964208641433" stroke="#000000" stroke-width="1" fill="none"></path></g><g transform="translate(546.53125 567.37109375) rotate(0 73.5 12.5)"><text x="0" y="18" font-family="Virgil, Segoe UI Emoji" font-size="20px" fill="#000000" text-anchor="start" style="white-space: pre;" direction="ltr">image_chain_id</text></g><g transform="translate(773.49609375 614.78515625) rotate(0 229.623046875 27.04296875)"><path d="M210.94148398408902 -0.3297693047059518 C232.377298352663 -0.9122156191923896, 258.16984426489097 -0.680903275848106, 280.636546567182 0.11955433824082462 C303.103248869473 0.9200119523297552, 325.57477371552636 2.8425033113711793, 345.7416977978353 4.472976379827632 C365.9086218801442 6.103449448284084, 385.9478505324135 7.947292425165764, 401.6380910610355 9.902392748979537 C417.32833158965747 11.85749307279331, 430.44698373165454 13.973903211586162, 439.8831409695673 16.20357832271027 C449.3192982074801 18.43325343383438, 455.7931947140993 20.540322975208966, 458.25503448851225 23.28044341572419 C460.7168742629252 26.020563856239413, 459.2250718018752 29.70398664221384, 454.654179616045 32.64430096580161 C450.0832874302148 35.58461528938938, 441.95281003914226 38.46828783431089, 430.8296813735311 40.9223293572508 C419.70655270791997 43.37637088019071, 404.7573322933268 45.627204521550965, 387.9154076223782 47.36855010344108 C371.07348295142964 49.109895685331196, 350.73104397152645 50.27442542610276, 329.77813334783974 51.370402848591496 C308.82522272415304 52.46638027108023, 285.1748211934518 53.636900592057806, 262.197943880258 53.94441463837349 C239.22106656706416 54.25192868468917, 214.68250529016564 53.56024495453526, 191.91686946867688 53.215487126485584 C169.15123364718812 52.87072929843591, 146.1245720152363 52.97481837072629, 125.60412895132552 51.87586767007545 C105.08368588741475 50.77691696942461, 85.25213602884703 48.67312478564416, 68.7942110852122 46.621782922580564 C52.33628614157736 44.570441059516966, 37.64681307399889 42.06457906043689, 26.856579289516503 39.56781649169386 C16.066345505034114 37.07105392295083, 8.074116494352012 34.24248737408183, 4.052808378317877 31.641207510122396 C0.031500262283742586 29.039927646162955, -0.37521098148710985 26.700075424312395, 2.7287305933116954 23.960137307937217 C5.8326721681105 21.22019919156204, 12.683720597306513 17.70072404458803, 22.67645782711071 15.201578811871327 C32.66919505691491 12.702433579154627, 47.0842866946272 10.975411493921893, 62.685153972136874 8.965265911637019 C78.28602124964655 6.955120329352145, 96.12181839907505 4.420938469446548, 116.28166149216874 3.140705318162084 C136.4415045852624 1.86047216687762, 165.183079377194 1.8301508996717497, 183.64421253069895 1.2838670039302365 C202.1053456842039 0.7375831081887233, 217.14398441437214 -0.04251510636527793, 227.04846041319846 -0.1369980562869948 C236.95293641202477 -0.23148100620871165, 242.96008112622542 0.12236007338175214, 243.07106852365686 0.7169693043999352 M227.5897249959976 1.2954288880246523 C249.64172557684938 0.5658456270458085, 275.0218665241565 -0.5327593439305538, 296.8987787632265 0.23005498720217687 C318.7756910022965 0.9928693183349075, 340.05738845489935 4.190730103921763, 358.85119843041775 5.872314874821036 C377.64500840593615 7.55389964572031, 395.32905305210556 8.44545676274522, 409.6616386163369 10.319563612597818 C423.99422418056827 12.193670462450417, 436.65097320382915 14.561618528400054, 444.8467118158058 17.11695597393663 C453.04245042778246 19.672293419473206, 457.9051312908265 22.910996060372465, 458.836070288197 25.651588285817276 C459.7670092855675 28.392180511262087, 456.5564647781551 30.811348965562445, 450.4323458000289 33.5605093266055 C444.3082268219027 36.30966968764855, 434.49492897309074 39.9407705094329, 422.09135641943976 42.1465504520756 C409.6877838657888 44.3523303947183, 393.6870436492392 45.2553537899363, 376.010910478123 46.79518898246168 C358.3347773070068 48.33502417498706, 337.6373663351022 50.40321055272014, 316.03455739274267 51.3855616072279 C294.43174845038317 52.36791266173566, 269.67822947660244 52.12822720587526, 246.39405682396603 52.68929530950824 C223.1098841713296 53.250363413141216, 198.6222467418666 55.15790878152215, 176.32952147692416 54.751970229025744 C154.0367962119817 54.346031676529336, 132.32501330467178 52.07115962818117, 112.63770523431128 50.25366399452978 C92.95039716395078 48.43616836087839, 73.71387971055533 46.14373846982137, 58.20567305476115 43.84699642711741 C42.69746639896696 41.55025438441345, 28.8418729244854 38.671227309188865, 19.588465299546158 36.473211738306006 C10.335057674606915 34.27519616742315, 5.023470683259632 33.27147060706701, 2.685227305125693 30.65890300182025 C0.3469839269917543 28.046335396573493, 1.1012292149171587 23.670373935356167, 5.559005030742526 20.797806106825465 C10.016780846567894 17.925238278294763, 18.3799452267642 15.476517920439292, 29.431882200077894 13.42349603063604 C40.48381917339159 11.370474140832787, 54.74926058773865 10.451096275269395, 71.8706268706247 8.479674768005953 C88.99199315351076 6.508253260742512, 110.99787723594233 2.7801269312261256, 132.1600798973942 1.5949669870553933 C153.3222825588461 0.40980704288466074, 183.38340286802205 1.4205419365442904, 198.84384283933602 1.3687151029815574 C214.30428281065 1.3168882694188244, 220.59736530743217 1.5984901573172106, 224.92271972527803 1.284005985678995 C229.2480741431239 0.9695218140407793, 224.53522501236571 -0.5457239448686598, 224.7959693464112 -0.5181899268477359" stroke="#000000" stroke-width="1" fill="none"></path></g><g transform="translate(808.9921875 629.32421875) rotate(0 203.5 12.5)"><text x="0" y="18" font-family="Virgil, Segoe UI Emoji" font-size="20px" fill="#000000" text-anchor="start" style="white-space: pre;" direction="ltr">image_digest_name_version_repositories</text></g><g transform="translate(754.21484375 327.75390625) rotate(0 254.43359375 31.1953125)"><path d="M177.63493406513902 0.724167784973524 C198.73677307564222 -0.42992396224754503, 227.48969252810826 0.6229054947015958, 252.06004088614822 0.6903997064598002 C276.63038924418817 0.7578939182180046, 301.56092589146283 0.3849014331342465, 325.0570242133787 1.1291330555227503 C348.5531225352946 1.8733646779112543, 372.49446900106386 3.635729668883637, 393.0366308176434 5.155789440790823 C413.57879263422296 6.675849212698009, 432.62637190689355 7.822481219770751, 448.3099951128561 10.249491686965868 C463.9936183188186 12.676502154160985, 477.24037493706334 16.72979574765799, 487.1383700534186 19.71785224396153 C497.0363651697739 22.70590874026507, 504.5667433545765 25.289310112365825, 507.6979658109876 28.17783066478711 C510.82918826739876 31.066351217208393, 510.33839551165306 34.06956167423905, 505.9257047918856 37.04897555848923 C501.51301407211815 40.02838944273942, 492.543205413847 43.44189302180034, 481.22182149238296 46.05431397028821 C469.90043757091894 48.666734918776086, 454.68968327611617 50.75044485029789, 437.9974012631013 52.72350124941647 C421.3051192500865 54.696557648535055, 402.24959772384614 56.48064296546516, 381.06812941429394 57.89265236499972 C359.88666110474173 59.30466176453428, 334.9543937288174 60.42071335866252, 310.908591405788 61.195557646623854 C286.8627890827586 61.97040193458519, 260.96801839551995 62.811351786160124, 236.7933154761174 62.541718092767745 C212.61861255671485 62.272084399375366, 188.63593645517443 60.813014269441666, 165.86037388937268 59.57775548626957 C143.08481132357093 58.34249670309747, 119.85113954708333 56.95496353479919, 100.13994008130695 55.130165393735155 C80.42874061553056 53.30536725267112, 62.08217465439695 50.898423489084436, 47.59317709471435 48.62896663988536 C33.10417953503175 46.35950979068629, 21.108612015031515 44.18116096092219, 13.205954723211335 41.51342429854073 C5.303297431391154 38.84568763615926, 1.1725745511454306 35.61239227989223, 0.1772333437932616 32.62254666559659 C-0.8181078635589074 29.63270105130095, 1.2479204758813296 26.65496768980602, 7.23390747909832 23.574350612766885 C13.219894482315311 20.49373353572775, 23.4520056983041 16.79953441060026, 36.09315536309521 14.13884420336176 C48.734305027886315 11.478153996123261, 64.94616930219834 9.602727498391946, 83.08080546784495 7.6102093693358945 C101.21544163349157 5.617691240279844, 124.57705714566038 3.3539320920690807, 144.90097235697488 2.183735429025454 C165.22488756828938 1.0135387659818271, 190.33921861239943 0.8387194710062786, 205.02429673573198 0.5890293910741349 C219.70937485906452 0.3393393111419911, 232.36479360329452 0.12392594352516417, 233.01144109697015 0.6855949494325912 M172.04639999777166 2.9202080073062717 C193.08304846604116 1.4614437026346299, 220.71074694062844 -0.6003664183803761, 245.10486861533735 -1.0265255867353673 C269.49899029004627 -1.4526847550903585, 295.10673619044843 -0.6227856268164729, 318.41113004602505 0.36325299717632475 C341.71552390160167 1.3492916211691224, 363.99628655466023 3.367074555660629, 384.9312317487972 4.889706157221418 C405.86617694293415 6.412337758782208, 427.6634783742041 7.205210689120753, 444.0208012108467 9.49904260654106 C460.3781240474893 11.792874523961368, 472.5621878429647 15.95038869400143, 483.0751687686528 18.652697661743268 C493.5881496943409 21.355006629485104, 503.4181912750465 22.764838286624677, 507.09868676497535 25.71289641299208 C510.7791822549042 28.660954539359484, 508.7254218226562 33.30914310503609, 505.1581417082259 36.341046419947695 C501.59086159379564 39.3729497348593, 495.60748428386097 41.14698054855396, 485.6950060783937 43.90431630246169 C475.78252787292644 46.66165205636941, 462.0269842407612 50.65452830865726, 445.6832724754224 52.88506094339405 C429.3395607100837 55.11559357813084, 408.838160770833 55.928957985315996, 387.63273548636124 57.287512110882446 C366.4273102018895 58.646066236448895, 342.19162830838934 60.190513763929744, 318.45072076859196 61.03638569679275 C294.7098132287946 61.882257629655754, 269.3126012540904 62.17321928071891, 245.18729024757704 62.362743708060464 C221.06197924106368 62.55226813540202, 196.6847265859927 63.000222200686125, 173.69885472951177 62.17353226084205 C150.71298287303082 61.34684232099798, 127.17967132140582 59.54109154610201, 107.27205910869145 57.40260406899602 C87.36444689597708 55.26411659189003, 69.17722152571017 51.74991650003846, 54.25318145322558 49.34260739820613 C39.329141380741 46.935298296373794, 26.721455909489016 45.48468693342893, 17.727818673783958 42.95874945800203 C8.734181438078897 40.43281198257513, 2.25549137423027 37.3100266157427, 0.29135803899521306 34.18698254564471 C-1.6727752962398437 31.063938475546717, 0.4706206863565212 27.286764787186478, 5.943018662373618 24.220485037414072 C11.415416638390713 21.154205287641666, 21.295941217826893 18.25295026921726, 33.12574589509779 15.789304047010273 C44.95555057236869 13.325657824803287, 59.542634516991754 11.601639518090174, 76.92184672599902 9.43860770417216 C94.30105893500628 7.275575890254146, 121.47652154334037 3.858747116285268, 137.40101914914135 2.811113163502185 C153.32551675494233 1.7634792107191017, 166.61213032749902 3.343777542268849, 172.4688323608049 3.1528039874736606 C178.32553439411078 2.961830432678472, 171.2542243766072 1.6009504128250829, 172.54123134897662 1.6652718347310547" stroke="#000000" stroke-width="1" fill="none"></path></g><g transform="translate(798.25 345.28125) rotate(0 203.5 12.5)"><text x="0" y="18" font-family="Virgil, Segoe UI Emoji" font-size="20px" fill="#000000" text-anchor="start" style="white-space: pre;" direction="ltr">image_digest_layerdiffid_to_layerdigest</text></g><g transform="translate(755.45703125 488.359375) rotate(0 258.9140625 29.884765625)"><path d="M240.88262981461858 -0.08772908924794365 C263.818978179343 -0.7380024685272714, 291.00888871252124 -0.7232555486794817, 314.9516508747944 -0.08557078935135465 C338.8944130370675 0.5521139699767724, 362.8564010145321 2.2285879668549597, 384.5392027882574 3.7383794667208186 C406.2220045619827 5.248170966586677, 427.6020548758462 7.005698679214673, 445.0484615171464 8.973178209843798 C462.4948681584466 10.940657740472924, 477.87619241618177 12.841665999496172, 489.2176426360587 15.543256650495572 C500.55909285593566 18.24484730149497, 508.64706068426676 22.28629591679524, 513.0971628364082 25.182722115840193 C517.5472649885496 28.079148314885146, 518.4632073467023 30.355364054529534, 515.9182555489073 32.92181384476528 C513.3733037511122 35.488263635001026, 507.2350693231768 38.02324054898761, 497.8274520496376 40.58142085725467 C488.4198347760984 43.13960116552173, 474.8707737748473 46.05377878413567, 459.47255190767214 48.27089569436765 C444.074330040497 50.48801260459963, 425.7600241133865 52.16444786738209, 405.4381208465866 53.88412231864656 C385.11621757978673 55.603796769911035, 361.11264248453716 57.518696220152, 337.5411323068728 58.588942401954505 C313.9696221292084 59.65918858375701, 288.5038229826442 60.20862682539865, 264.00905978060024 60.30559940946157 C239.5142965785563 60.40257199352449, 214.32206774701865 60.05754120303943, 190.5725530946092 59.17077790633202 C166.82303844219973 58.28401460962461, 142.49057963215267 56.73970137623582, 121.51197186614351 54.985019629217135 C100.53336410013436 53.23033788219845, 81.17122365950205 50.882672862200366, 64.7009064985543 48.64268742421991 C48.23058933760656 46.40270198623945, 33.16162655856926 43.819067797822015, 22.690068900457078 41.54510700133439 C12.218511242344897 39.27114620484676, 5.027104254979221 37.65595064403303, 1.8715605498812238 34.99892264529416 C-1.2839831552167738 32.34189464655529, 0.0034094661511829827 28.66481218654486, 3.7568066698690927 25.602939008901163 C7.5102038735870025 22.541065831257466, 14.03091856618983 19.329417931270008, 24.391943772188682 16.627683579431974 C34.75296897818753 13.925949227593938, 49.26988968862503 11.389571951102248, 65.9229579058622 9.39253289787295 C82.57602612309938 7.395493844643652, 103.10074108349728 5.885845340547999, 124.31035307561177 4.645449260056186 C145.51996506772628 3.405053179564372, 172.35925095303668 2.876280110759915, 193.18062985854914 1.9501564149220698 C214.0020087640616 1.0240327190842247, 238.0865990977757 -0.6755563269266874, 249.23862650868662 -0.9112929149708862 C260.3906539195975 -1.1470295030150848, 259.73008148701484 -0.1393732988421016, 260.09279432401473 0.5357368866568777 M312.0108266766362 -0.2582265299836983 C335.53224668074665 0.1679127460180953, 360.26481643198827 3.792324550605306, 382.2299969916942 5.094145608138422 C404.1951775514001 6.395966665671539, 426.43111187425416 5.820936524631127, 443.80191003487175 7.552699815215 C461.17270819548935 9.284463105798874, 474.915449793364 12.89880848037003, 486.45478595539976 15.484725351641663 C497.9941221174355 18.070642222913293, 507.7821389053454 20.034981526277562, 513.0379270070861 23.06820104284479 C518.2937151088267 26.10142055941202, 520.3839721753286 30.642641018279228, 517.9895145658438 33.684042451045045 C515.595056956359 36.72544388381086, 507.7436916711629 38.937661536675, 498.6711813501771 41.31660963943969 C489.59867102919134 43.69555774220438, 478.7902274038011 45.84229846773987, 463.55445263992937 47.95773106763316 C448.3186778760576 50.07316366752645, 427.4430237750224 52.38901558908352, 407.2565327669465 54.009205238799424 C387.0700417588706 55.62939488851533, 365.55046582316953 56.61942668908666, 342.43550659147405 57.6788689659286 C319.3205473597786 58.73831124277054, 293.7006134602518 59.973737675481196, 268.56677737677364 60.36585889985109 C243.43294129329544 60.757980124220985, 215.93312584798088 60.66686970558669, 191.6324900906049 60.031596312147954 C167.33185433322893 59.39632291870922, 143.38951771528156 58.048557222809215, 122.76296283251787 56.554218539218645 C102.1364079497542 55.059879855628076, 83.9440443393857 53.44605434408642, 67.87316079402288 51.06556421060452 C51.80227724866006 48.68507407712262, 37.35913118981667 44.98953683531698, 26.337661560340933 42.27127773832725 C15.316191930865196 39.553018641337516, 5.507212511750637 37.4217334119008, 1.744343017168461 34.75600962866612 C-2.0185264774137153 32.09028584543144, 0.1952919087917735 29.39463839436503, 3.7604445928478754 26.27693503891915 C7.325597276903977 23.15923168347327, 13.119951309089402 18.75723763671154, 23.135259121505072 16.04978949599085 C33.15056693392074 13.342341355270161, 47.469630335272626 11.838930858268197, 63.8522914673419 10.032246194595007 C80.23495259941117 8.225561530921818, 100.67868755891945 6.733693253497139, 121.43122591392074 5.209681513951715 C142.18376426892203 3.68566977440629, 164.82506745951693 1.5899574569319843, 188.36752159734962 0.8881757573224576 C211.90997573518231 0.18639405771293072, 241.8168958346571 1.037258668448704, 262.68595074091695 0.9989913162945534 C283.5550056471768 0.9607239641404028, 305.7506492315687 0.7667525674034247, 313.5818510349087 0.6585716443975542 C321.41305283824875 0.5503907213916838, 310.79093371702743 -0.20445792904327276, 309.67316156095717 0.34990577825933045" stroke="#000000" stroke-width="1" fill="none"></path></g><g transform="translate(791.453125 506.98828125) rotate(0 223 12.5)"><text x="0" y="18" font-family="Virgil, Segoe UI Emoji" font-size="20px" fill="#000000" text-anchor="start" style="white-space: pre;" direction="ltr">image_digest_layerdigest_to_layerdiffid_to</text></g><g><g transform="translate(393.21875 449.640625) rotate(0 60.00763293761298 -42.54054661061147)"><path d="M-0.1368935622274876 -0.789142283052206 C20.107216712087393 -15.118783537795146, 101.48745102509857 -72.13503100896875, 121.68316728696227 -86.49204729422927 M-1.6679014117363842 1.410954073006287 C18.408943124031648 -12.703152576650803, 100.51773222557269 -70.58120292232994, 120.79437058649026 -85.15757577872836" stroke="#000000" stroke-width="1" fill="none"></path></g><g transform="translate(393.21875 449.640625) rotate(0 60.00763293761298 -42.54054661061147)"><path d="M102.44535051413493 -60.27433840641894 C108.64240841667771 -69.18939162122497, 113.33072026787127 -74.83233839103924, 120.52840920395218 -83.37947227439844 M104.36810413689034 -61.03421438010552 C107.20559556225984 -66.08488673002427, 112.655025369965 -72.07526977570792, 119.83332009284757 -86.02595440491103" stroke="#000000" stroke-width="1" fill="none"></path></g><g transform="translate(393.21875 449.640625) rotate(0 60.00763293761298 -42.54054661061147)"><path d="M90.5567647790132 -77.00100967133295 C100.46520156899652 -80.57992658059229, 108.93656606135193 -80.90029930195259, 120.52840920395218 -83.37947227439844 M92.47951840176862 -77.76088564501953 C98.2277876823916 -78.77440875182286, 106.5508417334994 -80.72173998888942, 119.83332009284757 -86.02595440491103" stroke="#000000" stroke-width="1" fill="none"></path></g></g><g><g transform="translate(390.875 456.12109375) rotate(0 203.72501860484488 -37.98356616124511)"><path d="M-1.1740079440176487 0.6625343240797519 C66.86961048866311 -11.950981951008242, 340.37662346785265 -63.8029843253394, 408.62404515370724 -76.62966664656997 M0.4104991560336204 -0.035239101117476856 C68.36889832080963 -12.358036406800771, 340.3702436382727 -62.00373797979517, 408.3030374582764 -75.07213279104792" stroke="#000000" stroke-width="1" fill="none"></path></g><g transform="translate(390.875 456.12109375) rotate(0 203.72501860484488 -37.98356616124511)"><path d="M383.57812016714007 -57.821934259170774 C391.18699789998175 -63.13041326362692, 400.26915119127716 -69.60390825905263, 406.9145983058866 -76.4184577973839 M382.58990012179703 -60.19174301312316 C388.76946859248176 -63.56851947334658, 396.60461864572045 -68.74633038337433, 408.0104207500722 -75.97325451358222" stroke="#000000" stroke-width="1" fill="none"></path></g><g transform="translate(390.875 456.12109375) rotate(0 203.72501860484488 -37.98356616124511)"><path d="M379.8123078933685 -77.99465495580834 C388.5051761568785 -76.605369152759, 398.83078012399767 -76.41794178672161, 406.9145983058866 -76.4184577973839 M378.82408784802544 -80.36446370976073 C385.90484896226747 -78.17966318194276, 394.7841870497124 -77.76396277556151, 408.0104207500722 -75.97325451358222" stroke="#000000" stroke-width="1" fill="none"></path></g></g><g><g transform="translate(388.30078125 455.1953125) rotate(0 63.65201355298518 8.472243670867783)"><path d="M0.15609027519822116 1.0336740933358668 C21.678526504586138 3.4325903775791327, 107.06998395894963 12.794119958331187, 128.52512816563248 15.339808245748282 M-1.2211010596621783 0.5307490469980984 C20.238833135717236 2.973981706794972, 106.19930784032059 13.557197615302478, 127.83021639521233 16.413738294737414" stroke="#000000" stroke-width="1" fill="none"></path></g><g transform="translate(388.30078125 455.1953125) rotate(0 63.65201355298518 8.472243670867783)"><path d="M100.29567633747408 23.851237289138844 C104.34035523506138 22.76299721332945, 113.24487799430547 17.966868700084735, 129.07547952841037 14.51044089649804 M99.05494293189892 22.40901677077334 C109.2348029860739 20.5945590978219, 122.27535945408945 18.34947444135714, 127.74344903278164 16.066386402817443" stroke="#000000" stroke-width="1" fill="none"></path></g><g transform="translate(388.30078125 455.1953125) rotate(0 63.65201355298518 8.472243670867783)"><path d="M102.8764026168246 3.492950174135549 C106.43848454651811 7.4815400897179245, 114.69986649054215 7.7588846822386905, 129.07547952841037 14.51044089649804 M101.63566921124945 2.0507296557700467 C110.92236355236996 8.291293963375644, 122.93949564704809 14.119582837302907, 127.74344903278164 16.066386402817443" stroke="#000000" stroke-width="1" fill="none"></path></g></g><g><g transform="translate(390.96875 456.0703125) rotate(0 58.41770937967584 62.271577167999965)"><path d="M0.07048933133482937 -0.6094871364533901 C19.608240505307915 20.19839525992672, 98.47702538594604 102.99722270940741, 118.18706125840545 123.75978573933244 M-1.3516424990538507 1.6849281715694815 C18.035602064942942 22.76824040237504, 97.86482140711509 104.55896056069372, 117.7883948304411 125.15264147245325" stroke="#000000" stroke-width="1" fill="none"></path></g><g transform="translate(390.96875 456.0703125) rotate(0 58.41770937967584 62.271577167999965)"><path d="M89.77038428567786 113.82454569118272 C100.47086054347834 119.0161129050861, 111.07645195466111 121.4993326782645, 117.73194246298634 124.14041206338443 M89.83918722913106 113.01142912024807 C96.56106567203373 114.72208760236775, 102.71878219051503 118.2276378740223, 117.38195548324846 125.91891313628294" stroke="#000000" stroke-width="1" fill="none"></path></g><g transform="translate(390.96875 456.0703125) rotate(0 58.41770937967584 62.271577167999965)"><path d="M104.49031875293434 99.52617055043632 C109.4669600255978 110.16042733462129, 114.47829650571425 118.07769002526555, 117.73194246298634 124.14041206338443 M104.55912169638754 98.71305397950167 C107.70204705626796 103.85259911815602, 110.41957148899498 110.6998189541527, 117.38195548324846 125.91891313628294" stroke="#000000" stroke-width="1" fill="none"></path></g></g><g><g transform="translate(392.67578125 455.125) rotate(0 255.0772666948056 80.04619458918461)"><path d="M-0.18957701548933992 0.127885314077139 C85.24428118045132 26.576679273694758, 426.7126513240238 132.9911504946649, 511.9027770675719 159.83073501214386 M-1.748243677960709 -0.8505788413714618 C83.61967542266162 26.242145007746295, 425.86970760330865 134.2848078550864, 511.1395294081699 160.94296801974065" stroke="#000000" stroke-width="1" fill="none"></path></g><g transform="translate(392.67578125 455.125) rotate(0 255.0772666948056 80.04619458918461)"><path d="M481.382280093008 162.86215652199127 C487.04860002253696 161.00151815603033, 496.5149442956103 160.09233831170346, 511.6029849995207 160.40781811391003 M481.9462112396446 162.3825358175639 C490.71426953835095 161.6935870795297, 498.586692416426 160.3944491132575, 510.1927512429934 161.0141567843873" stroke="#000000" stroke-width="1" fill="none"></path></g><g transform="translate(392.67578125 455.125) rotate(0 255.0772666948056 80.04619458918461)"><path d="M487.537486721332 143.2858076859985 C491.902133601207 146.14578919809793, 499.88116047260803 149.96695327935072, 511.6029849995207 160.40781811391003 M488.1014178679686 142.80618698157113 C495.00011962831275 147.79967464896177, 501.094027665906 152.15702053930738, 510.1927512429934 161.0141567843873" stroke="#000000" stroke-width="1" fill="none"></path></g></g><g><g transform="translate(394.00390625 456.609375) rotate(0 243.59604364261037 19.39610994234681)"><path d="M-1.0092214621603488 -0.9291999422013759 C80.19429331248004 5.65696589127183, 406.8617153289417 32.88303918018937, 488.20130874738095 39.721419826895 M0.6617985408660023 1.1973661428038032 C81.63811189275545 7.403654365176335, 405.8953700545585 31.69029942863621, 487.35279803237876 37.86069595598616" stroke="#000000" stroke-width="1" fill="none"></path></g><g transform="translate(394.00390625 456.609375) rotate(0 243.59604364261037 19.39610994234681)"><path d="M456.92256151015437 46.29178354270462 C470.3123385688349 41.48231957739762, 481.96877435405304 38.99542046306324, 486.9633162755426 37.186811716938394 M457.73750105934715 46.23876262768809 C465.1303785015758 44.30129943643515, 472.7277092748935 41.34182509066236, 486.83844501226207 37.526061903396624" stroke="#000000" stroke-width="1" fill="none"></path></g><g transform="translate(394.00390625 456.609375) rotate(0 243.59604364261037 19.39610994234681)"><path d="M458.4632768236504 25.828494493565977 C471.2998459809891 28.816603487374497, 482.3682138289955 34.140235023501134, 486.9633162755426 37.186811716938394 M459.2782163728432 25.775473578549445 C466.10054329860213 28.87560386604082, 473.3177875445188 30.964317466321916, 486.83844501226207 37.526061903396624" stroke="#000000" stroke-width="1" fill="none"></path></g></g><g transform="translate(291.25 737.28125) rotate(0 78 12.5)"><text x="0" y="18" font-family="Virgil, Segoe UI Emoji" font-size="20px" fill="#000000" text-anchor="start" style="white-space: pre;" direction="ltr">:/var/lib/AntKing</text></g></svg>